<svg viewBox="0 0 72 72" xmlns="http://www.w3.org/2000/svg">
  <circle cx="36" cy="36" r="24" fill="#fcea2b"/>
  <path fill="#f1b31c" d="M53,19A24.0417,24.0417,0,0,1,36,60a24.302,24.302,0,0,1-17-7"/>
  <polyline fill="#fff" points="33.2 33.2 24 48 38.8 38.8"/>
  <polyline fill="#ea5a47" points="33.2 33.2 48 24 38.8 38.8"/>
  <circle cx="36" cy="36" r="24" fill="none" stroke="#000" stroke-linecap="round" stroke-linejoin="round" stroke-width="2"/>
  <polyline fill="none" stroke="#000" stroke-linecap="round" stroke-linejoin="round" stroke-width="2" points="33.2 33.2 24 48 38.8 38.8"/>
  <polyline fill="none" stroke="#000" stroke-linecap="round" stroke-linejoin="round" stroke-width="2" points="33.2 33.2 48 24 38.8 38.8"/>
  <line x1="36" y1="10" x2="36" y2="13" stroke="#000" stroke-linecap="round" stroke-width="2"/>
  <line x1="62" y1="36" x2="59" y2="36" stroke="#000" stroke-linecap="round" stroke-width="2"/>
  <line x1="36" y1="62" x2="36" y2="59" stroke="#000" stroke-linecap="round" stroke-width="2"/>
  <line x1="10" y1="36" x2="13" y2="36" stroke="#000" stroke-linecap="round" stroke-width="2"/>
  <circle cx="36" cy="36" r="2" fill="#000"/>
</svg>
